<svg width="157" height="32" viewBox="0 0 157 32" fill="none" xmlns="http://www.w3.org/2000/svg">
<g clip-path="url(#clip0_1_1088)">
<path d="M27.8083 14.8839C28.0801 14.6717 28.2817 14.3757 28.3848 14.0374C28.488 13.6992 28.4875 13.3355 28.3835 12.9975C28.2795 12.6595 28.0771 12.3641 27.8047 12.1528C27.5324 11.9414 27.2038 11.8246 26.8649 11.8188L20.2831 11.5582C20.2508 11.5559 20.2198 11.5438 20.1938 11.5234C20.1679 11.503 20.1481 11.4752 20.1369 11.4433L17.8625 5.00661C17.7483 4.67913 17.5407 4.39636 17.268 4.19658C16.9953 3.99679 16.6705 3.88965 16.3378 3.88965C16.005 3.88965 15.6803 3.99679 15.4075 4.19658C15.1348 4.39636 14.9273 4.67913 14.813 5.00661L12.546 11.4663C12.5347 11.4982 12.515 11.526 12.489 11.5464C12.4631 11.5668 12.4321 11.5789 12.3997 11.5812L5.81796 11.8418C5.47908 11.8476 5.15043 11.9643 4.87808 12.1757C4.60574 12.3871 4.40337 12.6825 4.29934 13.0205C4.19531 13.3585 4.19485 13.7222 4.29801 14.0604C4.40117 14.3987 4.60278 14.6947 4.87458 14.9069L10.0376 19.1597C10.0634 19.181 10.0827 19.2098 10.0931 19.2424C10.1035 19.2751 10.1046 19.3103 10.0961 19.3436L8.31902 25.9412C8.22693 26.2771 8.23585 26.6347 8.34457 26.9652C8.45328 27.2956 8.65652 27.583 8.92662 27.7881C9.19672 27.9933 9.52058 28.1062 9.85414 28.1117C10.1877 28.1171 10.5148 28.0148 10.7908 27.8186L16.2463 23.9872C16.2732 23.9677 16.3051 23.9573 16.3378 23.9573C16.3704 23.9573 16.4023 23.9677 16.4292 23.9872L21.8847 27.8186C22.157 28.0215 22.4829 28.1305 22.8171 28.1305C23.1513 28.1305 23.4772 28.0215 23.7495 27.8186C24.0197 27.6153 24.2231 27.3294 24.3318 27.0001C24.4405 26.6707 24.4491 26.3142 24.3565 25.9795L22.5648 19.3589C22.5553 19.3257 22.5558 19.2902 22.5663 19.2573C22.5768 19.2243 22.5967 19.1956 22.6233 19.175L27.8083 14.8839Z" fill="#FFC34F"/>
</g>
<g clip-path="url(#clip1_1_1088)">
<path d="M58.9752 14.8839C59.247 14.6717 59.4486 14.3757 59.5517 14.0374C59.6549 13.6992 59.6544 13.3355 59.5504 12.9975C59.4464 12.6595 59.244 12.3641 58.9716 12.1528C58.6993 11.9414 58.3707 11.8246 58.0318 11.8188L51.45 11.5582C51.4177 11.5559 51.3867 11.5438 51.3607 11.5234C51.3348 11.503 51.315 11.4752 51.3038 11.4433L49.0294 5.00661C48.9152 4.67913 48.7076 4.39636 48.4349 4.19658C48.1622 3.99679 47.8374 3.88965 47.5047 3.88965C47.1719 3.88965 46.8472 3.99679 46.5744 4.19658C46.3017 4.39636 46.0942 4.67913 45.9799 5.00661L43.7129 11.4663C43.7016 11.4982 43.6819 11.526 43.6559 11.5464C43.63 11.5668 43.599 11.5789 43.5666 11.5812L36.9849 11.8418C36.646 11.8476 36.3173 11.9643 36.045 12.1757C35.7726 12.3871 35.5703 12.6825 35.4662 13.0205C35.3622 13.3585 35.3617 13.7222 35.4649 14.0604C35.5681 14.3987 35.7697 14.6947 36.0415 14.9069L41.2045 19.1597C41.2303 19.181 41.2496 19.2098 41.26 19.2424C41.2704 19.2751 41.2715 19.3103 41.263 19.3436L39.4859 25.9412C39.3938 26.2771 39.4028 26.6347 39.5115 26.9652C39.6202 27.2956 39.8234 27.583 40.0935 27.7881C40.3636 27.9933 40.6875 28.1062 41.021 28.1117C41.3546 28.1171 41.6817 28.0148 41.9577 27.8186L47.4132 23.9872C47.4401 23.9677 47.472 23.9573 47.5047 23.9573C47.5373 23.9573 47.5692 23.9677 47.5961 23.9872L53.0516 27.8186C53.3239 28.0215 53.6498 28.1305 53.984 28.1305C54.3182 28.1305 54.6441 28.0215 54.9164 27.8186C55.1866 27.6153 55.39 27.3294 55.4987 27.0001C55.6074 26.6707 55.616 26.3142 55.5234 25.9795L53.7317 19.3589C53.7222 19.3257 53.7227 19.2902 53.7332 19.2573C53.7437 19.2243 53.7636 19.1956 53.7902 19.175L58.9752 14.8839Z" fill="#FFC34F"/>
</g>
<g clip-path="url(#clip2_1_1088)">
<path d="M90.1421 14.8839C90.4139 14.6717 90.6155 14.3757 90.7186 14.0374C90.8218 13.6992 90.8213 13.3355 90.7173 12.9975C90.6133 12.6595 90.4109 12.3641 90.1385 12.1528C89.8662 11.9414 89.5376 11.8246 89.1987 11.8188L82.6169 11.5582C82.5846 11.5559 82.5536 11.5438 82.5276 11.5234C82.5017 11.503 82.4819 11.4752 82.4707 11.4433L80.1963 5.00661C80.0821 4.67913 79.8745 4.39636 79.6018 4.19658C79.3291 3.99679 79.0043 3.88965 78.6716 3.88965C78.3388 3.88965 78.0141 3.99679 77.7413 4.19658C77.4686 4.39636 77.2611 4.67913 77.1468 5.00661L74.8798 11.4663C74.8685 11.4982 74.8488 11.526 74.8228 11.5464C74.7969 11.5668 74.7659 11.5789 74.7335 11.5812L68.1518 11.8418C67.8129 11.8476 67.4842 11.9643 67.2119 12.1757C66.9395 12.3871 66.7372 12.6825 66.6331 13.0205C66.5291 13.3585 66.5286 13.7222 66.6318 14.0604C66.735 14.3987 66.9366 14.6947 67.2084 14.9069L72.3714 19.1597C72.3972 19.181 72.4165 19.2098 72.4269 19.2424C72.4373 19.2751 72.4384 19.3103 72.4299 19.3436L70.6528 25.9412C70.5607 26.2771 70.5697 26.6347 70.6784 26.9652C70.7871 27.2956 70.9903 27.583 71.2604 27.7881C71.5305 27.9933 71.8544 28.1062 72.1879 28.1117C72.5215 28.1171 72.8486 28.0148 73.1246 27.8186L78.5801 23.9872C78.607 23.9677 78.6389 23.9573 78.6716 23.9573C78.7042 23.9573 78.7361 23.9677 78.763 23.9872L84.2185 27.8186C84.4908 28.0215 84.8167 28.1305 85.1509 28.1305C85.4851 28.1305 85.811 28.0215 86.0833 27.8186C86.3535 27.6153 86.5569 27.3294 86.6656 27.0001C86.7743 26.6707 86.7829 26.3142 86.6903 25.9795L84.8986 19.3589C84.8891 19.3257 84.8896 19.2902 84.9001 19.2573C84.9106 19.2243 84.9305 19.1956 84.9571 19.175L90.1421 14.8839Z" fill="#FFC34F"/>
</g>
<g clip-path="url(#clip3_1_1088)">
<path d="M121.309 14.8839C121.581 14.6717 121.782 14.3757 121.886 14.0374C121.989 13.6992 121.988 13.3355 121.884 12.9975C121.78 12.6595 121.578 12.3641 121.305 12.1528C121.033 11.9414 120.704 11.8246 120.366 11.8188L113.784 11.5582C113.751 11.5559 113.72 11.5438 113.695 11.5234C113.669 11.503 113.649 11.4752 113.638 11.4433L111.363 5.00661C111.249 4.67913 111.041 4.39636 110.769 4.19658C110.496 3.99679 110.171 3.88965 109.838 3.88965C109.506 3.88965 109.181 3.99679 108.908 4.19658C108.636 4.39636 108.428 4.67913 108.314 5.00661L106.047 11.4663C106.035 11.4982 106.016 11.526 105.99 11.5464C105.964 11.5668 105.933 11.5789 105.9 11.5812L99.3187 11.8418C98.9798 11.8476 98.6511 11.9643 98.3788 12.1757C98.1064 12.3871 97.9041 12.6825 97.8 13.0205C97.696 13.3585 97.6955 13.7222 97.7987 14.0604C97.9019 14.3987 98.1035 14.6947 98.3753 14.9069L103.538 19.1597C103.564 19.181 103.583 19.2098 103.594 19.2424C103.604 19.2751 103.605 19.3103 103.597 19.3436L101.82 25.9412C101.728 26.2771 101.737 26.6347 101.845 26.9652C101.954 27.2956 102.157 27.583 102.427 27.7881C102.697 27.9933 103.021 28.1062 103.355 28.1117C103.688 28.1171 104.015 28.0148 104.292 27.8186L109.747 23.9872C109.774 23.9677 109.806 23.9573 109.838 23.9573C109.871 23.9573 109.903 23.9677 109.93 23.9872L115.385 27.8186C115.658 28.0215 115.984 28.1305 116.318 28.1305C116.652 28.1305 116.978 28.0215 117.25 27.8186C117.52 27.6153 117.724 27.3294 117.833 27.0001C117.941 26.6707 117.95 26.3142 117.857 25.9795L116.066 19.3589C116.056 19.3257 116.057 19.2902 116.067 19.2573C116.077 19.2243 116.097 19.1956 116.124 19.175L121.309 14.8839Z" fill="#FFC34F"/>
</g>
<path d="M153.041 13.01C152.933 12.6649 152.729 12.3608 152.454 12.1359C152.179 11.911 151.847 11.7754 151.498 11.7462L145.113 11.212L142.647 5.02872C142.514 4.6918 142.287 4.4036 141.995 4.20077C141.704 3.99795 141.36 3.88965 141.009 3.88965C140.658 3.88965 140.315 3.99795 140.023 4.20077C139.731 4.4036 139.505 4.6918 139.371 5.02872L136.908 11.2108L130.519 11.7462C130.17 11.7769 129.837 11.9138 129.562 12.1397C129.288 12.3657 129.084 12.6708 128.975 13.0166C128.867 13.3625 128.86 13.7338 128.954 14.084C129.048 14.4342 129.24 14.7478 129.505 14.9854L134.376 19.3437L132.892 25.8603C132.81 26.2141 132.831 26.5852 132.952 26.9265C133.074 27.2679 133.29 27.5644 133.574 27.7784C133.857 27.9924 134.196 28.1145 134.546 28.129C134.897 28.1436 135.244 28.0502 135.543 27.8604L141.009 24.372L146.477 27.8604C146.777 28.0491 147.123 28.1417 147.473 28.1265C147.823 28.1114 148.161 27.9892 148.444 27.7754C148.727 27.5615 148.943 27.2656 149.064 26.9248C149.185 26.584 149.207 26.2136 149.126 25.8603L147.636 19.3426L152.507 14.9843C152.774 14.7471 152.968 14.4328 153.063 14.0814C153.158 13.7299 153.15 13.357 153.041 13.01ZM151.381 13.624L146.11 18.338C145.99 18.4455 145.901 18.5851 145.852 18.7417C145.803 18.8982 145.797 19.0657 145.833 19.2258L147.444 26.2745C147.448 26.2842 147.448 26.2952 147.445 26.3052C147.441 26.3152 147.434 26.3235 147.425 26.3283C147.406 26.344 147.4 26.3407 147.384 26.3283L141.462 22.5515C141.326 22.4651 141.169 22.4197 141.009 22.4202V5.68532C141.035 5.68532 141.038 5.6943 141.047 5.7145L143.714 12.4039C143.775 12.5569 143.876 12.6893 144.005 12.7868C144.133 12.8842 144.286 12.9428 144.445 12.9562L151.361 13.5353C151.379 13.5353 151.389 13.5353 151.398 13.5679C151.408 13.6004 151.398 13.6128 151.381 13.624Z" fill="#FFC34F"/>
<defs>
<clipPath id="clip0_1_1088">
<rect width="31.1668" height="31.1668" fill="white" transform="translate(0.758087 0.426758)"/>
</clipPath>
<clipPath id="clip1_1_1088">
<rect width="31.1668" height="31.1668" fill="white" transform="translate(31.925 0.426758)"/>
</clipPath>
<clipPath id="clip2_1_1088">
<rect width="31.1668" height="31.1668" fill="white" transform="translate(63.0919 0.426758)"/>
</clipPath>
<clipPath id="clip3_1_1088">
<rect width="31.1668" height="31.1668" fill="white" transform="translate(94.2588 0.426758)"/>
</clipPath>
</defs>
</svg>
