<svg width="32" height="32" viewBox="0 0 32 32" fill="none" xmlns="http://www.w3.org/2000/svg">
<rect width="32" height="32" rx="16" fill="#022B50"/>
<path d="M21.1997 10.9029C21.1997 13.6107 19.0047 15.8057 16.2969 15.8057C13.5891 15.8057 11.394 13.6107 11.394 10.9029C11.394 8.19501 13.5891 6 16.2969 6C19.0047 6 21.1997 8.19501 21.1997 10.9029Z" fill="white"/>
<path d="M18.56 17.3143H14.0343C12.4339 17.3143 10.8991 17.95 9.76735 19.0816C8.63575 20.2134 8 21.7482 8 23.3486V25.0457C8 25.2457 8.07947 25.4377 8.2209 25.5791C8.36232 25.7205 8.55427 25.8 8.75429 25.8H23.84C24.04 25.8 24.232 25.7205 24.3734 25.5791C24.5148 25.4377 24.5943 25.2457 24.5943 25.0457V23.3486C24.5943 21.7482 23.9585 20.2134 22.8269 19.0816C21.6951 17.95 20.1603 17.3143 18.56 17.3143Z" fill="white"/>
</svg>
