<svg width="25" height="25" viewBox="0 0 25 25" fill="none" xmlns="http://www.w3.org/2000/svg">
<path d="M12.3652 0C9.92347 0 7.53656 0.724062 5.50632 2.08062C3.47609 3.43718 1.89371 5.36531 0.959294 7.62119C0.0248787 9.87707 -0.219605 12.3594 0.256756 14.7542C0.733117 17.149 1.90893 19.3488 3.6355 21.0754C5.36207 22.802 7.56186 23.9778 9.95669 24.4541C12.3515 24.9305 14.8338 24.686 17.0897 23.7516C19.3456 22.8172 21.2737 21.2348 22.6303 19.2046C23.9868 17.1743 24.7109 14.7874 24.7109 12.3457C24.709 9.07198 23.4077 5.93291 21.0928 3.61805C18.778 1.3032 15.6389 0.00188813 12.3652 0ZM18.7174 9.362L11.4649 16.6407C11.2262 16.8812 10.9034 17.0196 10.5646 17.0267C10.3958 17.0289 10.2285 16.9956 10.0735 16.9291C9.91838 16.8626 9.77897 16.7644 9.66423 16.6407L6.01184 12.9883C5.7824 12.7436 5.65721 12.4192 5.66278 12.0838C5.66834 11.7484 5.80422 11.4283 6.04164 11.1913C6.27907 10.9544 6.5994 10.8191 6.93481 10.8142C7.27021 10.8093 7.59436 10.9351 7.83862 11.165L10.5705 13.8969L16.9227 7.54471C17.0413 7.4227 17.1833 7.32572 17.34 7.2595C17.4968 7.19327 17.6653 7.15915 17.8355 7.15915C18.0057 7.15915 18.1742 7.19327 18.3309 7.2595C18.4877 7.32572 18.6296 7.4227 18.7483 7.54471C18.9854 7.79102 19.1157 8.12101 19.1108 8.46289C19.1059 8.80478 18.9663 9.1309 18.7222 9.37032L18.7174 9.362Z" fill="white"/>
</svg>
